<svg xmlns="http://www.w3.org/2000/svg" xmlns:xlink="http://www.w3.org/1999/xlink" version="1.1" id="Layer_1" x="0px" y="0px" viewBox="0 0 1200 271.6" style="enable-background:new 0 0 1200 271.6;" xml:space="preserve">
<style type="text/css">
	.st0{fill:#5F6369;}
	.st1{fill:#09BC06;}
	.st2{fill:#00303E;}
</style>
<g>
	<g>
		<g>
			<path class="st0" d="M321.7,205.3h3.8l18.6,48.8h-5.9l-4.8-13.1h-19.6l-4.8,13.1h-5.8L321.7,205.3z M331.6,236.4l-5-14     c-1.5-4.3-2.3-6.6-2.9-8.4h-0.1c-0.6,1.8-1.4,4.1-3,8.4l-5.1,14H331.6z"/>
			<path class="st0" d="M368.3,205.4h5.1l13.6,20.4c2.1,3.1,3.3,5,4.5,7h0.1c1.2-2,2.6-4.2,4.5-7.3l12.8-20.1h5.1V254h-5.5v-31.2     c0-2.5,0-5.7,0.1-8.3h-0.1c-1,2-2.5,4.4-3.5,5.9l-12,19.2h-2.9L377,220c-1-1.5-2.4-3.5-3.3-5.4h-0.1c0.1,2.3,0.1,5.7,0.1,8v31.3     h-5.5L368.3,205.4L368.3,205.4z"/>
			<path class="st0" d="M423.3,236.6c0-10.3,6.3-18.3,16.2-18.3c9.7,0,16.1,8,16.1,18.3c0,10.2-6.3,18.2-16.2,18.2     C429.7,254.8,423.3,246.8,423.3,236.6z M449.9,236.6c0-8-4.1-13.7-10.4-13.7c-6.5,0-10.6,5.6-10.6,13.7c0,8,4.1,13.6,10.5,13.6     S449.9,244.5,449.9,236.6z"/>
			<path class="st0" d="M461.4,236.6c0-10.3,6.3-18.3,16.2-18.3c9.7,0,16.1,8,16.1,18.3c0,10.2-6.3,18.2-16.2,18.2     C467.8,254.8,461.4,246.8,461.4,236.6z M488,236.6c0-8-4.1-13.7-10.4-13.7c-6.5,0-10.6,5.6-10.6,13.7c0,8,4.1,13.6,10.5,13.6     S488,244.5,488,236.6z"/>
			<path class="st0" d="M499.5,237c0-11.3,8-18.7,18-18.7c2.1,0,4,0.2,5.9,0.7v-17.2h5.4v50.6c-2.4,1.3-6.6,2.4-11.1,2.4     C507.7,254.8,499.5,248.8,499.5,237z M523.4,249.2v-25.4c-1.8-0.6-3.1-0.9-5.5-0.9c-6.9,0-12.8,5-12.8,13.9     c0,8.1,4.8,13.3,12.8,13.3C519.8,250.2,521.9,249.8,523.4,249.2z"/>
			<path class="st0" d="M558.9,256.8c-4.5,12.8-9.8,14.8-15.5,14.8c-2.6,0-4.4-0.4-6.2-1.2l1.3-4.5c1.3,0.6,3,1,4.8,1     c4.6,0,8.3-3.3,11.1-12.6l-15.3-35.1h5.9l11.9,28.3h0.1l9.3-28.3h5.7L558.9,256.8z"/>
			<path class="st0" d="M584.7,210.2c0,3.2-1,6.7-3,10.3l-3.1-0.7c0.7-2.5,1.1-4.7,1.1-6.9c0-3.5-0.9-6.3-2.4-9.4l4.9-2.4     C583.8,204.3,584.7,207.1,584.7,210.2z"/>
			<path class="st0" d="M591.2,247.6c2,1.3,4.8,2.6,8.7,2.6c4.1,0,7.5-1.6,7.5-5.6c0-7.6-16.3-5.2-16.3-16.8c0-5.3,4.1-9.6,11.8-9.6     c3.3,0,6.3,0.7,8.6,1.6v4.8c-2.4-1-5-1.9-8.4-1.9c-3.3,0-6.7,1.1-6.7,4.9c0,7.7,16.5,5.1,16.5,16.9c0,6.9-5.8,10.3-12.9,10.3     c-4.6,0-8.3-1.5-10.5-3L591.2,247.6z"/>
			<path class="st0" d="M649,205.3h3.8l18.6,48.8h-5.9l-4.8-13.1h-19.6l-4.8,13.1h-5.8L649,205.3z M658.9,236.4l-5-14     c-1.5-4.3-2.3-6.6-2.9-8.4h-0.1c-0.6,1.8-1.4,4.1-3,8.4l-5.1,14H658.9z"/>
			<path class="st0" d="M677.4,219.2h4.6l0.7,4.5c3.8-3.2,7.7-5.4,12.2-5.4c5.5,0,10.3,3.5,10.3,12.2V254h-5.4v-21.7     c0-5.2-1.3-9.2-6.3-9.2c-3.9,0-7.5,2.4-10.7,5.2V254h-5.5v-34.8H677.4z"/>
			<path class="st0" d="M734.4,250.2c-2.7,2.6-6.1,4.6-10.5,4.6c-6.3,0-11.1-4.1-11.1-10.8c0-4.6,2.4-7.8,5.9-9.4     c2.4-1.2,5.2-1.5,8.7-1.7l6.6-0.2v-2.2c0-5.3-3.2-7.7-7.5-7.7c-4.2,0-7.2,1.4-9.6,2.9l-2.1-3.8c4.1-2.6,8.4-3.5,12.2-3.5     c7.2,0,12.4,3.5,12.4,11.9v12c0,6.9,0.2,10.1,0.7,11.9h-4.8L734.4,250.2z M727.9,237c-3,0.1-5,0.5-6.6,1.3c-2,1.1-3,3.1-3,5.4     c0,3.8,2.5,6.5,6.5,6.5c4.4,0,7.6-2.9,9.2-4.6v-8.9L727.9,237z"/>
			<path class="st0" d="M749.1,201.8h5.4V246c0,2.9,0.9,3.7,2.7,3.7c0.6,0,1.6-0.3,2.1-0.5l1.2,4.3c-1.4,0.7-3.2,1-4.9,1     c-4.4,0-6.6-2.6-6.6-6.8L749.1,201.8L749.1,201.8z"/>
			<path class="st0" d="M782.1,256.8c-4.5,12.8-9.8,14.8-15.5,14.8c-2.6,0-4.4-0.4-6.2-1.2l1.3-4.5c1.3,0.6,3,1,4.8,1     c4.6,0,8.3-3.3,11.1-12.6l-15.3-35.1h5.9l11.9,28.3h0.1l9.3-28.3h5.7L782.1,256.8z"/>
			<path class="st0" d="M805.7,246.7v-23.1h-5.9v-4.4h5.9v-7.9l5.4-1.8v9.7h10.4l-1.6,4.4H811v22.2c0,3,1.3,4.4,3.6,4.4     s4.3-1,5.7-1.9l1.9,3.8c-2.1,1.5-5.3,2.7-8.8,2.7C808.5,254.8,805.7,251.9,805.7,246.7z"/>
			<path class="st0" d="M828.4,207.6c0-2.1,1.5-3.7,3.6-3.7c2.2,0,3.7,1.5,3.7,3.7c0,2.1-1.5,3.6-3.7,3.6     C829.9,211.3,828.4,209.7,828.4,207.6z M829.3,219.2h5.4v34.9h-5.4V219.2z"/>
			<path class="st0" d="M843.3,236.9c0-10.2,6.6-18.7,17.3-18.7c3.5,0,6.6,1,8.7,2.1v4.8c-2.3-1.4-5-2.4-8.4-2.4     c-7.5,0-12,5.8-12,13.7c0,8.6,4.5,13.6,11.6,13.6c3.7,0,6.3-1.2,8.4-2.4l1.7,3.8c-2.5,1.7-6.5,3.2-10.8,3.2     C849.1,254.8,843.3,246.8,843.3,236.9z"/>
			<path class="st0" d="M875.4,247.6c2,1.3,4.8,2.6,8.7,2.6c4.1,0,7.5-1.6,7.5-5.6c0-7.6-16.3-5.2-16.3-16.8c0-5.3,4.1-9.6,11.8-9.6     c3.3,0,6.3,0.7,8.6,1.6v4.8c-2.4-1-5-1.9-8.4-1.9c-3.3,0-6.7,1.1-6.7,4.9c0,7.7,16.5,5.1,16.5,16.9c0,6.9-5.8,10.3-12.9,10.3     c-4.6,0-8.3-1.5-10.5-3L875.4,247.6z"/>
			<path class="st0" d="M955,251.4c-4.6,2.4-9.1,3.4-13.6,3.4c-14.5,0-23.2-10.2-23.2-24.4c0-14.2,9.7-25.3,24.1-25.3     c5.2,0,9.6,1.2,12,2.6v5.2c-3.4-1.8-7-3-12-3c-11.1,0-18.4,9-18.4,20.2c0,11.9,6.9,20.1,17.9,20.1c4.5,0,8.3-1.3,11.6-3     L955,251.4z"/>
			<path class="st0" d="M960,236.6c0-10.3,6.3-18.3,16.2-18.3c9.7,0,16.1,8,16.1,18.3c0,10.2-6.3,18.2-16.2,18.2     C966.3,254.8,960,246.8,960,236.6z M986.6,236.6c0-8-4.1-13.7-10.4-13.7c-6.5,0-10.6,5.6-10.6,13.7c0,8,4.1,13.6,10.5,13.6     S986.6,244.5,986.6,236.6z"/>
			<path class="st0" d="M999.9,219.2h4.6l0.7,4.5c3.7-3.2,7.7-5.4,12.1-5.4c4.1,0,7.4,2,9,6c4.1-3.7,8.6-6,13-6     c5.6,0,10.3,3.6,10.3,12.2V254h-5.4v-21.8c0-5.1-1.2-9.1-6.1-9.1c-3.8,0-7.4,2.3-10.7,5.2c0.1,0.7,0.1,1.5,0.1,2.1V254h-5.4     v-21.8c0-5.2-1.2-9.2-6.1-9.2c-3.8,0-7.4,2.3-10.6,5.2V254h-5.5L999.9,219.2L999.9,219.2z"/>
			<path class="st0" d="M1059.1,220.4c3.7-1.4,7.7-2.1,11.5-2.1c11.1,0,17.7,6.6,17.7,18.2c0,11.4-7.5,18.4-17.6,18.4     c-2.2,0-4.4-0.5-6.1-1.3v18h-5.5V220.4z M1070.6,250.2c7.9,0,12.2-5.5,12.2-13.9c0-9.2-5.3-13.4-12.2-13.4c-2.1,0-4,0.3-5.9,0.9     v24.9C1066.6,249.6,1068.3,250.2,1070.6,250.2z"/>
			<path class="st0" d="M1115.6,250.2c-2.7,2.6-6.1,4.6-10.5,4.6c-6.3,0-11.1-4.1-11.1-10.8c0-4.6,2.4-7.8,5.9-9.4     c2.4-1.2,5.2-1.5,8.7-1.7l6.6-0.2v-2.2c0-5.3-3.2-7.7-7.5-7.7c-4.2,0-7.2,1.4-9.6,2.9l-2.1-3.8c4.1-2.6,8.4-3.5,12.2-3.5     c7.2,0,12.4,3.5,12.4,11.9v12c0,6.9,0.2,10.1,0.7,11.9h-4.8L1115.6,250.2z M1109.2,237c-3,0.1-5,0.5-6.6,1.3c-2,1.1-3,3.1-3,5.4     c0,3.8,2.5,6.5,6.5,6.5c4.4,0,7.6-2.9,9.2-4.6v-8.9L1109.2,237z"/>
			<path class="st0" d="M1130.1,219.2h4.6l0.7,4.5c3.8-3.2,7.7-5.4,12.3-5.4c5.5,0,10.3,3.5,10.3,12.2V254h-5.4v-21.7     c0-5.2-1.3-9.2-6.3-9.2c-3.9,0-7.5,2.4-10.7,5.2V254h-5.5V219.2z"/>
			<path class="st0" d="M1182.8,256.8c-4.5,12.8-9.8,14.8-15.5,14.8c-2.6,0-4.4-0.4-6.2-1.2l1.3-4.5c1.3,0.6,3,1,4.8,1     c4.6,0,8.3-3.3,11.1-12.6l-15.3-35.1h5.9l11.9,28.3h0.1l9.3-28.3h5.7L1182.8,256.8z"/>
		</g>
		<g id="g3709_00000021088663737729969870000000046295088333674388_">
			<path id="path3711_00000093896427196945949570000000677444163828724926_" class="st1" d="M195.1,113.8L88.9,215.2l-60.5-48.7     V28.1H64v30.4h28.4V28.1h38.4v30.4h28.4V28.1h35.7v85.6h0.2V113.8z M0,0v179.8l90.4,73.1l133.1-127.1V0H0z"/>
		</g>
		<g id="g3715_00000080199083733968241280000007826795170932631453_">
			<g id="g3721_00000064351780336732241850000005923294789446602921_">
				<path id="path3723_00000013159091132965869710000015600068966304755378_" class="st2" d="M369.2,77.4h-30.9v-45h30.9      c7.3,0,21.1,4.5,21.1,22.4C390.3,72.8,376.5,77.4,369.2,77.4 M371.2,0h-69.1v162.5h36.2V110h32.9c30.4-0.5,55-24.9,55.3-55      C426.7,19.1,396.3,0,371.2,0"/>
			</g>
			<g id="g3725_00000067198597678537695020000000845296883941053594_">
				<path id="path3727_00000132080565433917460870000014973626110390024863_" class="st2" d="M490.7,132.9c-0.8,0-1.5,0.3-2.3,0.3      c-16.3,0-29.6-13.3-29.6-29.4s13.3-29.4,29.6-29.4c0.8,0,1.5,0,2.3,0.3c1,0,1.8-0.3,2.8-0.3c16.3,0,29.6,13.3,29.6,29.4      s-13.3,29.4-29.6,29.4C492.5,132.9,491.8,132.9,490.7,132.9 M519.9,60.3c-3.3-10.3-17.3-17.6-35.2-17.6      c-33.7,0-58.8,27.1-58.8,60.8s25.1,60.8,58.8,60.8c18.1,0,32.1-7.5,35.2-17.6V162H555V44.7h-35.2v15.6H519.9z"/>
			</g>
			<g id="g3729_00000158708702710944691960000004132259306209324170_">
				<path id="path3731_00000168801598866412498490000014046243902157085580_" class="st2" d="M637.4,92.7      c-22.9-7.8-32.4-6.5-32.4-14.6c0-4,3.8-7.5,11.8-7.5c13.8,0,22.9,4.5,28.1,8.5l16.6-22.9c-9-7.8-22.6-15.1-43.7-15.1      c-24.1,0-46,12.6-46,37.7c0,17.8,10.8,27.1,27.4,32.6c18.1,6.3,34.2,6.8,34.2,14.8c0,5.5-5.5,9.5-17.8,9.5      c-13.8,0-26.1-5.3-32.4-12.8l-20.3,21.6c9,10.8,25.1,20.8,51.7,20.8c36.4,0,52.2-17.1,52.2-39.7      C666.6,111.3,658.8,100.2,637.4,92.7"/>
			</g>
			<g id="g3733_00000029750567563147865490000008893819329620862646_">
				<path id="path3735_00000022518208901869383500000015682284198973659829_" class="st2" d="M747.7,92.7      c-22.9-7.8-32.4-6.5-32.4-14.6c0-4,3.8-7.5,11.8-7.5c13.8,0,22.9,4.5,28.1,8.5l16.6-22.9c-9-7.8-22.6-15.1-43.7-15.1      c-24.1,0-46,12.6-46,37.7c0,17.8,10.8,27.1,27.4,32.6c18.1,6.3,34.2,6.8,34.2,14.8c0,5.5-5.5,9.5-17.8,9.5      c-13.8,0-26.1-5.3-32.4-12.8l-20.1,21.6c9,10.8,25.1,20.8,51.7,20.8c36.4,0,52.2-17.1,52.2-39.7      C776.8,111.3,769,100.2,747.7,92.7"/>
			</g>
			<g id="g3737_00000141454307837216970110000009150089589517208734_">
				<path id="path3739_00000008857350099528904920000015613535927528214711_" class="st2" d="M785.9,162.5h36.4V97.9h65.3V66.1      h-65.3V32.6h71.8V0h-108L785.9,162.5L785.9,162.5z"/>
			</g>
			<g id="g3741_00000115486751192431589420000018056659829139145621_">
				<path id="path3743_00000150812795054594480940000006640926766064842681_" class="st2" d="M961.7,134.4      c-17.1,0-31.1-13.8-31.1-30.9s14.1-30.9,31.1-30.9c17.1,0,31.1,13.8,31.1,30.9S978.7,134.4,961.7,134.4 M961.7,41.4      c-36.7,0-65.8,27.4-65.8,62.3S925,166,961.7,166s65.8-27.6,65.8-62.3C1027.7,69.1,998.1,41.4,961.7,41.4"/>
			</g>
			<g id="g3745_00000034083163462777146660000000880827563722122376_">
				<path id="path3747_00000122685475062514722360000008259798288095486602_" class="st2" d="M1070.9,61V45h-35.2v117.3h35.2V105      c0-19.1,11.8-30.6,31.6-30.6c4,0,7.8,0.5,11.8,1.3V42.9c-3-0.5-6-0.8-9.3-0.8C1089,42.2,1076.2,49,1070.9,61"/>
			</g>
			<g id="g3749_00000036950547233913652680000013253386767226638244_">
				<path id="path3751_00000145045153896757903160000001689518759753216956_" class="st2" d="M1173.9,45V0h-34.2v45h-15.8v31.4h15.8      v85.9h34.2v-86h26.1V45H1173.9L1173.9,45z"/>
			</g>
		</g>
	</g>
</g>
</svg>